<svg width="65" height="40" viewBox="0 0 65 40" fill="none" xmlns="http://www.w3.org/2000/svg">
<path d="M18.9906 16.4249C19.5397 14.4036 20.5381 12.6841 21.9834 11.2456L22.767 10.4655L21.9124 9.76393L15.5369 4.5298L14.8597 3.97376L14.2195 4.57219C12.6837 6.00793 11.425 7.76381 10.437 9.82463C9.53589 11.6621 8.95558 13.803 8.67623 16.2291L2.89285 16.4786L1.89378 16.5217L1.93687 17.5208L2.25127 24.81L2.29437 25.8091L3.29344 25.766L9.14739 25.5135C9.96476 29.3652 11.5353 32.4142 13.9262 34.5658C16.5042 36.8858 19.7615 37.9316 23.6054 37.7658C27.1033 37.615 30.0856 36.433 32.4923 34.1968L32.4924 34.1968L32.4991 34.1905C34.8945 31.9232 36.3204 28.5866 36.8872 24.3234L36.8876 24.3203L36.9716 23.6728L46.6954 23.2533C46.4717 24.4872 46.0948 25.6807 45.5638 26.8357C44.8737 28.2903 43.8755 29.6975 42.5525 31.0549L41.8006 31.8263L42.6256 32.5188L48.9399 37.8196L49.5866 38.3626L50.2302 37.8159C52.2087 36.1354 53.7669 34.0034 54.9124 31.4421L54.9168 31.4324L54.9209 31.4226C55.9188 29.0576 56.506 26.4002 56.6979 23.4625L62.3745 23.2177L63.3736 23.1746L63.3305 22.1755L63.0161 14.8863L62.973 13.8872L61.9739 13.9303L55.884 14.193C55.4085 12.4102 54.768 10.8016 53.9557 9.37479L53.9558 9.37476L53.9507 9.36605C52.9785 7.69759 51.8257 6.30482 50.4846 5.20587C49.1457 4.06763 47.6332 3.23306 45.9545 2.70578C44.2731 2.13567 42.4985 1.89436 40.6389 1.97457C37.1821 2.12367 34.2751 3.30398 31.9904 5.54902C29.6467 7.81171 28.2237 11.1404 27.6143 15.396L27.6142 15.396L27.6125 15.409L27.5285 16.0566L18.9906 16.4249ZM44.8839 13.7021L44.8889 13.7056C45.373 14.0474 45.7952 14.5495 46.1314 15.2542L38.2804 15.5928C38.5469 14.7729 38.8736 14.1903 39.2303 13.8014C39.6812 13.3098 40.4553 12.9527 41.7506 12.8968C43.0651 12.8401 44.0862 13.1314 44.8839 13.7021ZM25.2058 25.9298C24.7438 26.3909 23.9978 26.7146 22.8107 26.7659C21.6208 26.8172 20.7747 26.5599 20.1712 26.0998C19.7567 25.7558 19.3869 25.2234 19.1005 24.4436L26.1282 24.1405C25.8541 24.9512 25.5389 25.5354 25.2058 25.9298Z" fill="white" stroke="black" stroke-width="2"/>
</svg>
