<svg width="40" height="65" viewBox="0 0 40 65" fill="none" xmlns="http://www.w3.org/2000/svg">
<path d="M23.5751 18.9906C25.5964 19.5397 27.3159 20.5381 28.7544 21.9834L29.5345 22.767L30.2361 21.9124L35.4702 15.5369L36.0262 14.8597L35.4278 14.2195C33.9921 12.6837 32.2362 11.425 30.1754 10.437C28.3379 9.53589 26.197 8.95558 23.7709 8.67623L23.5214 2.89285L23.4783 1.89378L22.4792 1.93688L15.19 2.25128L14.1909 2.29437L14.234 3.29344L14.4865 9.14739C10.6348 9.96476 7.5858 11.5353 5.43424 13.9262C3.1142 16.5042 2.06838 19.7615 2.23418 23.6054C2.38505 27.1033 3.56701 30.0856 5.8032 32.4923L5.80317 32.4924L5.80952 32.4991C8.07676 34.8945 11.4134 36.3204 15.6766 36.8872L15.6797 36.8876L16.3272 36.9716L16.7467 46.6954C15.5128 46.4717 14.3193 46.0948 13.1643 45.5638C11.7097 44.8737 10.3025 43.8755 8.94508 42.5525L8.17374 41.8006L7.48119 42.6256L2.18036 48.9399L1.63742 49.5866L2.1841 50.2302C3.86463 52.2087 5.99658 53.7669 8.55792 54.9124L8.56763 54.9168L8.57743 54.9209C10.9424 55.9188 13.5998 56.506 16.5375 56.6979L16.7823 62.3745L16.8254 63.3736L17.8245 63.3305L25.1137 63.0161L26.1128 62.973L26.0697 61.9739L25.807 55.884C27.5898 55.4085 29.1984 54.768 30.6252 53.9557L30.6252 53.9558L30.6339 53.9507C32.3024 52.9785 33.6952 51.8257 34.7941 50.4846C35.9324 49.1457 36.7669 47.6332 37.2942 45.9545C37.8643 44.2731 38.1056 42.4985 38.0254 40.6389C37.8763 37.1821 36.696 34.2751 34.451 31.9904C32.1883 29.6467 28.8596 28.2237 24.604 27.6143L24.604 27.6142L24.591 27.6125L23.9434 27.5285L23.5751 18.9906ZM26.2979 44.8839L26.2944 44.8889C25.9526 45.373 25.4505 45.7952 24.7458 46.1314L24.4072 38.2804C25.2271 38.5469 25.8097 38.8736 26.1986 39.2304C26.6902 39.6812 27.0473 40.4553 27.1032 41.7506C27.1599 43.0651 26.8686 44.0862 26.2979 44.8839ZM14.0702 25.2058C13.6091 24.7438 13.2854 23.9978 13.2341 22.8107C13.1828 21.6208 13.4401 20.7747 13.9002 20.1712C14.2442 19.7567 14.7766 19.3869 15.5564 19.1005L15.8595 26.1282C15.0488 25.8541 14.4646 25.5389 14.0702 25.2058Z" fill="white" stroke="black" stroke-width="2"/>
</svg>
