<svg width="294" height="29" viewBox="0 0 294 29" fill="none" xmlns="http://www.w3.org/2000/svg">
<path d="M0.115761 22.533C-0.142175 23.0213 0.044613 23.6263 0.532964 23.8842L8.49111 28.0876C8.97946 28.3455 9.58445 28.1587 9.84239 27.6704C10.1003 27.182 9.91353 26.577 9.42518 26.3191L2.35127 22.5828L6.08756 15.5089C6.3455 15.0205 6.15871 14.4156 5.67036 14.1576C5.182 13.8997 4.57702 14.0865 4.31908 14.5748L0.115761 22.533ZM292.967 23.8842C293.455 23.6263 293.642 23.0213 293.384 22.533L289.181 14.5748C288.923 14.0865 288.318 13.8997 287.83 14.1576C287.341 14.4156 287.155 15.0205 287.412 15.5089L291.149 22.5828L284.075 26.3191C283.586 26.577 283.4 27.182 283.658 27.6704C283.916 28.1587 284.521 28.3455 285.009 28.0876L292.967 23.8842ZM1.29501 23.9555C96.0581 -5.3024 197.442 -5.3024 292.205 23.9555L292.795 22.0445C197.648 -7.33207 95.8524 -7.33207 0.704993 22.0445L1.29501 23.9555Z" fill="black"/>
</svg>
